<svg width="503" height="507" viewBox="0 0 503 507" fill="none" xmlns="http://www.w3.org/2000/svg">
<path d="M62.4268 407.268C28.2538 363.845 10.2028 311.852 8.61481 256.68C8.57681 254.683 8.56315 252.685 8.57382 250.687C8.58449 248.69 8.61947 246.693 8.6788 244.695C8.7388 242.699 8.82282 240.703 8.93082 238.708C9.03948 236.714 9.17247 234.72 9.3298 232.728C9.48647 230.737 9.66781 228.748 9.87381 226.76C10.0798 224.774 10.3098 222.789 10.5638 220.807C10.8185 218.826 11.0971 216.848 11.3998 214.873C11.7025 212.899 12.0292 210.928 12.3798 208.961C12.7305 206.995 13.1055 205.033 13.5048 203.075C13.9035 201.117 14.3262 199.165 14.7728 197.218C15.2195 195.271 15.6898 193.329 16.1838 191.393C16.6778 189.458 17.1955 187.529 17.7368 185.605C18.2781 183.683 18.8428 181.767 19.4308 179.857C20.0188 177.948 20.6301 176.046 21.2648 174.152C21.8995 172.258 22.5575 170.371 23.2388 168.493C23.9195 166.615 24.6228 164.746 25.3488 162.884C26.0755 161.024 26.8248 159.172 27.5968 157.329C28.3681 155.487 29.1622 153.654 29.9788 151.83C30.7955 150.007 31.6345 148.194 32.4958 146.391C33.3565 144.589 34.2391 142.797 35.1438 141.015C36.0485 139.235 36.9748 137.465 37.9228 135.706C38.8715 133.948 39.8412 132.201 40.8318 130.466C41.8225 128.732 42.8342 127.009 43.8668 125.299C44.8995 123.589 45.9531 121.892 47.0278 120.208C48.1025 118.524 49.1971 116.853 50.3118 115.195C51.4271 113.538 52.5628 111.894 53.7188 110.264C54.8741 108.635 56.0491 107.02 57.2438 105.418C58.4391 103.818 59.6535 102.232 60.8868 100.66C62.1208 99.0891 63.3735 97.5331 64.6448 95.9924C65.9168 94.4518 67.2075 92.9268 68.5168 91.4174C69.8255 89.9088 71.1528 88.4161 72.4988 86.9394C73.8441 85.4628 75.2075 84.0028 76.5888 82.5594C121.117 35.4744 183.412 10.0754 247.702 8.28844C249.336 8.25377 250.97 8.2361 252.604 8.23543C254.238 8.2341 255.872 8.24976 257.506 8.28243C259.14 8.31509 260.773 8.36444 262.406 8.43044C264.039 8.49644 265.671 8.57909 267.303 8.67842C268.933 8.77776 270.564 8.89409 272.193 9.02742C273.822 9.16009 275.448 9.30976 277.074 9.47643C278.7 9.64243 280.324 9.82544 281.946 10.0254C283.568 10.2248 285.188 10.4411 286.805 10.6744C288.422 10.9071 290.037 11.1564 291.65 11.4224C293.262 11.6884 294.872 11.9711 296.479 12.2704C298.085 12.5691 299.689 12.8844 301.289 13.2164C302.889 13.5484 304.485 13.8971 306.079 14.2624C307.671 14.6271 309.26 15.0081 310.846 15.4054C312.431 15.8028 314.012 16.2161 315.589 16.6454C317.166 17.0754 318.738 17.5214 320.305 17.9834C321.872 18.4454 323.435 18.9234 324.993 19.4174C326.55 19.9121 328.102 20.4224 329.65 20.9484C331.197 21.4744 332.739 22.0161 334.275 22.5734C335.811 23.1308 337.342 23.7041 338.866 24.2934C340.39 24.8821 341.909 25.4868 343.421 26.1074C344.933 26.7274 346.438 27.3628 347.937 28.0134C349.436 28.6648 350.928 29.3314 352.413 30.0134C353.898 30.6948 355.376 31.3914 356.848 32.1034C358.318 32.8154 359.782 33.5424 361.238 34.2844C362.694 35.0264 364.142 35.7834 365.583 36.5554C367.023 37.3268 368.456 38.1131 369.881 38.9144C371.305 39.7158 372.721 40.5314 374.129 41.3614C375.536 42.1914 376.935 43.0361 378.325 43.8954C379.715 44.7541 381.097 45.6271 382.469 46.5144C383.842 47.4018 385.205 48.3031 386.559 49.2184C387.913 50.1338 389.257 51.0628 390.592 52.0055C391.926 52.9481 393.251 53.9044 394.567 54.8744C396.192 56.0524 397.802 57.2508 399.397 58.4694C400.992 59.6874 402.572 60.9254 404.137 62.1834C405.701 63.4408 407.25 64.7174 408.783 66.0134C410.315 67.3094 411.832 68.6241 413.333 69.9574C414.833 71.2914 416.316 72.6434 417.783 74.0134C419.249 75.3841 420.699 76.7728 422.131 78.1794C423.563 79.5854 424.977 81.0094 426.375 82.4514C427.771 83.8928 429.15 85.3514 430.511 86.8274C431.872 88.3034 433.214 89.7958 434.537 91.3044C435.86 92.8138 437.165 94.3391 438.451 95.8804C439.736 97.4218 441.002 98.9791 442.25 100.552C443.496 102.125 444.723 103.713 445.931 105.316C447.139 106.92 448.326 108.538 449.494 110.171C450.661 111.804 451.808 113.451 452.935 115.112C454.061 116.774 455.166 118.449 456.252 120.138C457.336 121.827 458.4 123.529 459.443 125.244C460.486 126.96 461.506 128.688 462.506 130.428C463.506 132.168 464.484 133.921 465.44 135.686C466.396 137.451 467.331 139.227 468.243 141.015C469.155 142.803 470.045 144.603 470.912 146.413C471.779 148.223 472.624 150.044 473.446 151.875C474.268 153.706 475.068 155.547 475.844 157.398C476.621 159.249 477.374 161.109 478.105 162.979C478.835 164.849 479.542 166.727 480.226 168.614C480.909 170.502 481.569 172.397 482.206 174.301C482.843 176.205 483.455 178.116 484.045 180.034C484.633 181.954 485.199 183.88 485.74 185.812C486.281 187.745 486.799 189.684 487.292 191.63C487.785 193.576 488.254 195.528 488.699 197.485C489.143 199.443 489.564 201.405 489.96 203.373C490.356 205.341 490.727 207.313 491.075 209.29C491.421 211.267 491.744 213.248 492.042 215.233C492.319 216.955 492.578 218.68 492.818 220.408C493.058 222.136 493.279 223.867 493.482 225.599C493.685 227.332 493.87 229.066 494.036 230.802C494.202 232.539 494.349 234.277 494.479 236.017C494.607 237.757 494.718 239.497 494.81 241.239C494.901 242.981 494.974 244.724 495.029 246.467C495.084 248.211 495.119 249.955 495.136 251.699C495.153 253.444 495.152 255.188 495.132 256.932C495.112 258.677 495.073 260.421 495.016 262.164C494.959 263.908 494.882 265.65 494.788 267.392C494.693 269.134 494.58 270.875 494.449 272.614C494.317 274.354 494.166 276.091 493.997 277.827C493.828 279.564 493.641 281.298 493.435 283.03C493.229 284.762 493.004 286.492 492.762 288.219C492.518 289.947 492.257 291.672 491.977 293.393C491.698 295.115 491.399 296.834 491.083 298.549C490.766 300.265 490.431 301.977 490.079 303.685C489.725 305.393 489.354 307.098 488.965 308.798C488.575 310.498 488.167 312.194 487.741 313.886C487.315 315.578 486.872 317.265 486.41 318.947C485.948 320.629 485.468 322.306 484.971 323.978C484.473 325.65 483.957 327.317 483.424 328.977C482.89 330.638 482.34 332.293 481.771 333.942C481.202 335.592 480.616 337.235 480.013 338.871C479.409 340.508 478.788 342.138 478.149 343.761C477.51 345.385 476.854 347.001 476.181 348.609C475.508 350.219 474.818 351.821 474.111 353.415C473.403 355.01 472.679 356.597 471.938 358.176C471.197 359.755 470.438 361.326 469.663 362.889C468.888 364.452 468.097 366.006 467.289 367.552C466.481 369.098 465.656 370.635 464.816 372.163C463.974 373.692 463.117 375.211 462.244 376.721C456.427 386.787 449.769 396.105 442.891 405.46C430.939 369.013 428.691 330.057 420.989 292.674C415.769 267.336 409.034 242.398 399.286 218.403C396.165 210.719 391.669 203.597 388.658 195.898C386.303 189.878 384.598 183.493 382.572 177.345C375.703 156.495 369.36 147.277 354.438 131.633C328.428 104.365 291.451 93.3294 254.59 92.4134C223.926 92.1904 190.306 99.4574 164.893 117.262C136.777 136.961 128.588 158.26 115.741 188.156C106.957 208.596 98.9328 229.158 92.8168 250.587C85.2308 277.169 80.6758 304.581 75.9168 331.772L62.4268 407.268Z" fill="#AB54FE"/>
<circle cx="252.579" cy="253.427" r="244.5" fill="white"/>
<circle cx="252.579" cy="253.427" r="214.5" fill="#AB54FE" stroke="#240542" stroke-width="8"/>
<path d="M158.751 256.167L158.463 255.435C164.647 241.552 174.5 229.018 185.737 218.852C184.78 219.361 183.835 219.889 182.901 220.437C181.967 220.986 181.045 221.554 180.135 222.141C179.225 222.729 178.327 223.336 177.443 223.961C176.558 224.587 175.687 225.231 174.831 225.893C173.973 226.555 173.131 227.236 172.303 227.934C171.475 228.632 170.662 229.348 169.864 230.08C169.066 230.813 168.284 231.562 167.518 232.328C166.752 233.094 166.002 233.875 165.269 234.673C164.536 235.471 163.82 236.283 163.122 237.111C162.423 237.939 161.742 238.782 161.08 239.638C160.416 240.495 159.772 241.365 159.146 242.249C158.52 243.133 157.913 244.03 157.325 244.94C156.737 245.85 156.169 246.771 155.62 247.705C155.071 248.639 154.542 249.585 154.034 250.541C153.525 251.497 153.037 252.464 152.569 253.441C152.101 254.418 151.654 255.404 151.228 256.4C137.724 256.564 124.818 257.152 111.54 259.708C112.14 224.22 125.49 163.774 151.691 138.538C160.666 129.894 178.62 124.288 190.994 124.628C202.86 124.954 212.652 129.582 221.856 136.799C217.961 129.492 208.481 124.551 200.797 122.244C189.354 118.809 178.05 119.687 167.061 124.104C168.069 123.429 169.084 122.766 170.108 122.115C171.132 121.465 172.163 120.826 173.202 120.2C174.241 119.574 175.288 118.961 176.342 118.36C177.396 117.76 178.457 117.172 179.525 116.597C180.593 116.022 181.668 115.46 182.75 114.911C183.831 114.362 184.919 113.826 186.014 113.303C187.108 112.78 188.209 112.27 189.316 111.774C190.423 111.278 191.536 110.795 192.654 110.325C193.772 109.856 194.896 109.4 196.026 108.957C197.156 108.515 198.29 108.087 199.43 107.671C200.57 107.257 201.714 106.856 202.864 106.468C204.014 106.08 205.168 105.707 206.327 105.347C207.485 104.988 208.647 104.642 209.815 104.31C210.981 103.979 212.152 103.662 213.327 103.358C214.501 103.055 215.679 102.766 216.861 102.491C218.042 102.217 219.227 101.956 220.415 101.709C221.602 101.463 222.792 101.231 223.986 101.013C225.179 100.796 226.375 100.593 227.574 100.404C228.772 100.216 229.972 100.041 231.175 99.8814C232.377 99.7214 233.582 99.5761 234.788 99.4454C235.994 99.3147 237.201 99.1984 238.41 99.0964C239.618 98.9951 240.828 98.9081 242.039 98.8354C243.25 98.7628 244.462 98.7051 245.674 98.6624C246.886 98.6191 248.099 98.5904 249.312 98.5764C250.525 98.5624 251.738 98.5631 252.951 98.5784C254.163 98.5931 255.376 98.6228 256.589 98.6674C257.801 98.7121 259.012 98.7711 260.223 98.8444C261.434 98.9184 262.644 99.0067 263.853 99.1094C265.061 99.2127 266.268 99.3304 267.474 99.4624C268.68 99.5944 269.884 99.7408 271.087 99.9014C272.289 100.063 273.489 100.238 274.687 100.428C275.885 100.618 277.08 100.823 278.274 101.041C297.726 104.742 315.041 110.792 331.769 121.632C317.968 118.539 303.478 119.384 291.235 127.056C286.725 129.883 283.27 133.403 279.703 137.315C293.641 127.73 307.3 122.149 324.481 125.416C342.128 128.771 354.343 138.637 364.203 153.406C371.989 165.069 375.905 179.081 380.158 192.308C383.023 201.213 386.773 209.949 389.301 218.923C394.903 238.811 395.52 261.886 391.413 282.111C390.071 288.721 388.458 295.51 386.347 301.914C376.726 296.755 367.225 291.083 357.273 286.607C357.397 281.798 357.312 277.076 356.544 272.316C356.04 269.192 352.647 260.981 353.163 258.65C359.54 258.514 386.215 261.229 389.631 260.173C386.512 257.62 359.962 256.688 354.296 256.485C352.67 256.085 351.946 256.043 351.006 254.498C349.33 251.745 348.466 248.523 346.947 245.681C341.3 235.115 332.241 225.98 321.342 220.926C325.32 226.856 330.705 231.67 335.473 236.945C340.62 242.64 344.226 249.012 347.241 256.032L331.116 256.027C326.256 248.924 321.19 241.887 315.774 235.197L315.401 235.317C319.707 244.78 327.359 252.945 332.346 262.095C335.066 266.893 336.575 271.663 337.964 276.983C336.244 276.093 334.619 274.981 332.622 275.148L331.978 275.867C332.589 278.204 337.657 280.985 339.57 283.243L340.387 283.509L340.278 281.747C341.155 281.115 341.19 281.13 342.222 281.33C345.515 281.968 349.219 284.373 352.167 285.939C352.587 292.043 350.126 298.452 347.983 304.055C346.486 301.662 343.266 295.164 340.69 294.45L339.853 295.275C340.427 298.849 344.446 303.981 346.252 307.337C344.196 310.53 340.445 315.954 336.589 316.915C338.232 312.579 336.561 306.591 334.649 302.466C333.928 300.91 333.245 299.913 331.804 298.983C330.355 298.759 330.062 298.772 328.687 299.273C327.892 300.37 327.932 300.354 328.04 301.711C333.142 308.828 333.344 308.999 335.098 317.6L333.43 318.099C332.272 317.313 332.194 316.749 331.933 315.39C331.708 314.219 331.572 313.022 331.415 311.84L331.848 312.698L331.132 312.425C331.308 314.612 331.49 316.771 331.854 318.938L324.846 320.23C324.214 315.556 323.093 303.733 319.019 300.624C318.222 300.016 317.066 299.985 316.117 299.876L314.95 300.315C314.008 305.497 325.477 314.685 320.719 319.353C318.931 319.882 317.634 320.145 315.921 319.077C315.14 318.591 314.563 317.974 313.957 317.298L313.444 318.734C310.321 320.011 297.454 314.567 294.218 313.207C281.85 308.009 260.893 296.307 255.5 283.137C253.008 277.054 253.299 240.68 254.121 232.924C264.868 227.621 270.564 226.069 277.113 214.946C280.363 218.464 284.709 223.48 289.805 223.882C291.443 224.012 292.733 223.569 293.945 222.427C295.681 220.792 296.14 217.649 296.021 215.398C295.639 208.167 289.646 200.808 284.365 196.233C279.699 192.191 273.773 188.889 267.412 189.477C261.953 189.982 257.35 193.271 251.682 193.439C242.118 193.724 236.421 187.266 225.883 190.404C221.83 191.611 218.386 194.174 215.787 197.482C211.7 202.686 208.256 211.573 209.261 218.229C209.518 219.937 210.187 221.707 211.716 222.669C213.058 223.514 214.638 223.454 216.099 223.006C220.218 221.742 223.314 217.905 226.155 214.868C231.338 218.335 234.542 223.998 239.496 227.527C242.55 229.703 248.564 230.695 249.314 234.87C250.157 239.562 249.837 276.251 249.049 280.272C248.426 283.455 246.932 286.315 245.023 288.914C233.741 304.28 205.077 317.417 186.629 320.133C186.181 320.199 185.733 320.26 185.285 320.318L181.939 316.498C182.221 313.98 182.315 311.01 183.207 308.637C184.466 305.29 187.922 303.983 187.299 299.918C186.77 299.407 186.659 299.067 185.869 299.027C184.698 298.967 183.353 299.557 182.534 300.416C178.017 305.159 181.324 317.965 176.263 321.058C174.964 320.974 174.27 321.007 173.307 319.967C172.445 319.035 172.209 318.051 172.232 316.835L171.918 316.55L170.885 319C169.894 319.01 169.979 319.091 169.02 318.552C170.098 314.811 174.944 301.269 173.375 298.002C173.035 297.295 172.992 297.52 172.096 297.283L169.846 298.789C168.993 301.452 167.906 304.075 166.916 306.692L169.154 310.652C168.478 312.97 167.985 315.287 167.517 317.652C167.267 317.601 167.011 317.573 166.768 317.498C162.162 316.065 158.295 311.402 155.762 307.497C158.8 302.286 160.483 296.389 163.509 291.131C165.553 287.581 171.426 280.994 171.626 277.276L171.171 276.988C164.39 284.804 160.516 294.857 153.61 302.513L153.083 303.092C152.715 301.941 152.434 300.772 152.181 299.591C151.198 294.99 149.877 285.897 152.545 281.767C155.177 280.545 157.381 280.504 160.11 279.922C161.404 279.645 162.465 279.399 163.071 278.087C163.452 277.263 163.479 276.4 163.218 275.548C162.981 274.779 162.718 274.831 162.071 274.475C158.296 274.82 156.366 278.631 152.948 280.225C152.737 280.323 152.523 280.416 152.31 280.511C152.026 275.647 154.488 263.715 157.074 259.499C157.775 258.356 158.325 258.503 159.568 258.249C163.996 259.435 169.41 260.007 173.994 260.245C175.153 259.703 175.233 259.778 175.738 258.623C173.284 256.4 168.23 257.519 165.062 257.244C162.958 257.061 160.826 256.568 158.751 256.167ZM190.165 160.25C183.268 157.537 175.299 158.003 168.515 160.927C161.379 164.003 156.945 170.263 153.84 177.117L151.427 182.427C155.279 188.747 160.112 194.576 167.705 196.321C174.343 197.847 180.832 195.625 186.91 193.152C192.34 190.523 197.255 186.131 199.791 180.579C201.748 176.294 201.714 172.828 200.059 168.499C197.341 164.33 194.817 162.054 190.165 160.25ZM300.347 171.502C298.251 173.428 295.939 176.665 295.837 179.597C295.8 180.657 296.073 181.362 296.565 182.299C297.422 182.916 297.492 182.759 298.495 182.75C300.203 181.643 300.358 180.526 300.794 178.53C301.283 176.292 301.584 174.204 302.526 172.089C302.652 171.987 302.78 171.889 302.903 171.784C310.434 165.343 312.754 161.701 324.004 162.344C331.952 162.798 337.928 166.95 342.963 172.774C344.619 174.69 345.969 176.567 347.212 178.777C346.538 183.968 344.035 187.051 340.496 190.66C336.354 193.483 332.729 194.389 327.818 195.091C333.235 192.94 338.387 190.642 340.713 184.818C342.123 181.285 341.808 177.452 340.195 174.046C338.099 169.619 334.459 166.28 329.824 164.666C325.075 163.013 320.11 163.684 315.648 165.903C311.956 167.738 309.151 170.681 307.88 174.636C307.726 175.099 307.596 175.568 307.491 176.044C307.385 176.52 307.303 177 307.246 177.484C307.188 177.968 307.156 178.454 307.149 178.942C307.141 179.43 307.157 179.916 307.199 180.402C307.241 180.888 307.307 181.37 307.398 181.849C307.488 182.329 307.603 182.802 307.743 183.269C307.881 183.737 308.043 184.196 308.229 184.646C308.415 185.097 308.623 185.537 308.853 185.967C311.6 191.099 316.821 194.363 322.346 195.782C322.76 195.892 323.178 195.99 323.598 196.077C324.018 196.165 324.441 196.241 324.865 196.306C325.289 196.372 325.714 196.427 326.141 196.47C326.567 196.514 326.995 196.547 327.424 196.568C327.852 196.59 328.281 196.6 328.71 196.599C329.139 196.599 329.568 196.587 329.997 196.564C330.425 196.541 330.852 196.507 331.279 196.462C331.705 196.417 332.131 196.361 332.555 196.293C332.979 196.227 333.4 196.149 333.82 196.059C334.24 195.971 334.657 195.871 335.072 195.76C335.486 195.65 335.898 195.529 336.306 195.397C336.714 195.265 337.119 195.123 337.52 194.97C337.921 194.818 338.318 194.655 338.71 194.481C339.102 194.308 339.49 194.125 339.874 193.931C340.256 193.738 340.634 193.535 341.007 193.321C341.379 193.109 341.746 192.886 342.107 192.654C342.338 192.508 342.564 192.355 342.793 192.205C344.591 191.026 346.326 189.64 348.036 188.334C350.062 186.786 351.89 185.158 352.029 182.425C352.12 180.628 350.308 178.741 349.246 177.361C345.8 172.395 341.645 167.427 336.64 163.96C330.72 159.859 323.745 158.418 316.678 159.902C310.029 161.298 304.005 165.811 300.347 171.502ZM181.02 132.229C173.341 133.138 164.945 136.096 160.033 142.439C158.915 143.881 158.156 145.224 158.092 147.08L158.448 147.664C159.811 147.885 160.889 147.571 162.015 146.745C164.807 144.7 166.781 142.278 169.828 140.437C173.97 138.63 177.937 137.462 182.494 137.39C186.48 137.327 193.989 140.226 196.903 138.369C197.327 137.116 197.316 137.115 196.857 135.872C193.319 132.784 186.065 132.019 181.481 132.195C181.327 132.2 181.174 132.218 181.02 132.229ZM313.914 132.646C310.284 133.37 303.198 135.558 301.042 138.828C300.227 140.065 300.328 140.333 300.617 141.687C301.301 142.225 301.254 142.438 302.186 142.33C304.057 142.113 306.278 140.592 307.926 139.655C314.945 135.666 322.662 136.633 330.032 139.379C333.831 141.178 337.509 144.596 341.375 145.756L342.439 145.362C342.751 143.067 341.56 141.37 340.208 139.561C336.965 135.224 329.545 133.505 324.378 132.848C320.948 132.411 317.362 132.363 313.914 132.646ZM317.311 144.314C315.523 144.427 313.738 144.277 312.305 145.493L312.237 146.408C313.76 147.72 315.862 147.946 317.817 147.934C318.121 147.899 318.425 147.861 318.729 147.829C319.964 147.701 321.118 147.833 322.342 147.99C323.05 147.581 322.931 147.463 323.19 146.728L322.916 147.653L322.89 146.24C321.056 144.845 319.648 144.302 317.311 144.314ZM177.774 144.713C176.667 145.342 175.626 145.907 174.696 146.793L174.51 147.667C176.403 149.278 179.401 148.48 181.686 148.491C182.89 148.069 183.725 147.91 184.507 146.84C183.966 145.717 183.689 145.725 182.556 145.289C181.093 144.725 179.321 144.756 177.774 144.713ZM179.628 238.883C178.393 239.896 177.586 240.554 176.973 242.092C177.133 242.805 177.041 243.14 177.68 243.608C178.639 244.308 179.672 244.352 180.811 244.493C182.041 243.579 183.002 242.989 183.532 241.475C183.337 240.187 183.236 240.234 182.231 239.374C181.356 239.186 180.515 238.993 179.628 238.883ZM226.448 251.441C225.443 252.554 224.938 252.921 224.618 254.412C225.35 255.437 225.643 255.602 226.955 255.891C227.575 256.028 228.443 255.968 229.06 255.972C230.218 255.014 230.525 254.792 231.069 253.412C230.599 252.411 230.393 251.962 229.221 251.59C228.454 251.347 227.264 251.447 226.448 251.441ZM274.152 252.105C273.589 253.429 273.404 253.755 273.561 255.163C274.742 256.362 275.729 256.747 277.428 256.779C278.054 256.791 278.685 256.758 279.31 256.729C279.999 255.461 280.203 254.916 280.036 253.474C279.165 252.544 278.55 252.18 277.242 252.059C276.234 251.966 275.163 252.058 274.152 252.105ZM208.469 252.529C207.374 253.625 206.637 254.35 206.18 255.889L206.462 256.962C207.892 257.67 208.439 257.523 210 257.427C211.165 256.244 212.169 255.351 212.663 253.71C212.272 252.908 212.46 252.816 211.768 252.579C210.711 252.216 209.56 252.428 208.469 252.529ZM189.578 254.582C188.506 255.915 187.956 256.807 187.545 258.475L187.939 259.565C189.534 260.108 190.174 259.665 191.76 259.192C193.004 258.245 193.643 257.668 194.262 256.165C193.893 254.949 193.889 255.039 192.774 254.404C191.687 254.414 190.656 254.42 189.578 254.582ZM296.902 254.459C296.451 255.89 296.172 256.373 296.516 257.864C297.841 259.162 300.374 259.325 302.149 259.686C302.559 258.159 302.768 257.533 302.186 255.989C300.909 254.694 299.559 254.453 297.813 254.449C297.509 254.448 297.206 254.456 296.902 254.459ZM316.492 258.982C316.578 260.36 316.572 261.498 317.719 262.484C318.933 263.528 320.84 263.617 322.372 263.75C322.364 262.136 322.347 261.439 321.457 260.019C319.813 258.917 318.384 259.037 316.492 258.982ZM285.332 271.024C284.902 272.605 284.739 272.957 285.188 274.59C286.541 275.756 287.771 275.915 289.528 275.97C290.125 274.642 290.41 274.22 290.285 272.738C288.827 271.249 287.33 271.176 285.332 271.024ZM213.339 271.413C212.57 272.538 212.009 273.253 212.001 274.679C212.696 275.664 212.87 275.979 214.183 276.122C214.945 276.205 215.942 275.972 216.708 275.862C217.496 274.597 217.84 274.259 217.858 272.735C216.431 271.407 215.208 271.413 213.339 271.413ZM196.136 274.025C195.151 275.048 194.439 275.679 194.219 277.153C194.793 278.254 194.984 278.471 196.279 278.828C196.871 278.991 197.809 278.938 198.399 278.951C199.563 277.704 199.859 277.433 200.279 275.714C199.707 274.601 199.594 274.561 198.482 273.964L196.136 274.025ZM302.754 274.359C302.715 276.013 302.735 276.969 303.544 278.433C305.032 279.474 306.18 279.454 307.928 279.215C307.98 277.711 307.772 277.102 307.117 275.806C305.661 274.613 304.589 274.428 302.754 274.359ZM180.471 275.018C178.992 276.218 177.932 277.165 176.955 278.811L177.004 280.086C178.169 281.028 178.692 281.012 180.14 281.249C181.709 280.114 183.535 278.633 183.762 276.561C183.842 275.836 183.66 275.905 183.164 275.212C182.168 274.913 181.503 274.914 180.471 275.018ZM320.222 275.406C320.008 277.198 319.938 278.861 321.182 280.336C322.243 281.593 323.564 281.823 325.113 281.828C325.535 280.272 325.668 279.705 325.078 278.126C323.709 276.544 322.218 275.956 320.222 275.406ZM199.84 297.772C198.014 299.631 195.868 301.783 195.489 304.463L195.766 305.069L196.873 304.998C198.653 305.022 199.043 304.94 200.309 303.673C201.267 302.714 202.188 301.353 202.233 299.958C202.25 299.433 202.101 299 201.968 298.509C201.225 298.038 200.706 297.902 199.84 297.772ZM301.216 298.421C300.902 300.115 300.858 300.3 301.525 301.875C302.946 303.096 304.262 303.681 305.996 304.367C306.35 302.859 306.472 302.161 306.027 300.621C304.865 299.141 303.77 298.749 301.951 298.494C301.707 298.46 301.461 298.446 301.216 298.421Z" fill="#FEFEFF"/>
<path d="M169.828 140.438C166.781 142.279 164.807 144.701 162.015 146.746C160.889 147.572 159.811 147.886 158.448 147.665L158.092 147.081C158.156 145.225 158.915 143.882 160.033 142.44C164.945 136.097 173.341 133.139 181.02 132.23C181.174 132.219 181.327 132.201 181.481 132.196C186.065 132.02 193.319 132.785 196.857 135.873C197.316 137.116 197.327 137.117 196.903 138.37C193.989 140.227 186.48 137.328 182.494 137.391C177.937 137.463 173.97 138.631 169.828 140.438Z" fill="#240542"/>
<path d="M330.032 139.379C322.662 136.633 314.945 135.666 307.926 139.655C306.278 140.592 304.057 142.113 302.186 142.33C301.254 142.438 301.301 142.225 300.617 141.687C300.328 140.333 300.227 140.065 301.042 138.828C303.198 135.558 310.284 133.37 313.914 132.646C317.362 132.363 320.948 132.411 324.378 132.848C329.545 133.505 336.965 135.224 340.208 139.561C341.56 141.37 342.751 143.067 342.439 145.362L341.375 145.756C337.509 144.596 333.831 141.178 330.032 139.379Z" fill="#240542"/>
<path d="M317.817 147.935C315.862 147.947 313.76 147.721 312.237 146.409L312.305 145.494C313.738 144.278 315.523 144.428 317.311 144.315C319.648 144.303 321.056 144.846 322.89 146.241L322.916 147.654L323.19 146.729C322.931 147.464 323.05 147.582 322.342 147.991C321.118 147.834 319.964 147.702 318.729 147.83C318.425 147.862 318.121 147.9 317.817 147.935Z" fill="#240542"/>
<path d="M181.686 148.491C179.401 148.48 176.403 149.278 174.51 147.667L174.696 146.793C175.626 145.907 176.667 145.342 177.774 144.713C179.321 144.756 181.093 144.725 182.556 145.289C183.689 145.725 183.966 145.717 184.507 146.84C183.725 147.91 182.89 148.069 181.686 148.491Z" fill="#240542"/>
<path d="M153.84 177.118C156.945 170.264 161.379 164.004 168.515 160.928C175.299 158.004 183.268 157.538 190.165 160.251C194.817 162.055 197.341 164.331 200.059 168.5C201.714 172.829 201.748 176.295 199.791 180.58C197.255 186.132 192.34 190.524 186.91 193.153C180.832 195.626 174.343 197.848 167.705 196.322C160.112 194.577 155.279 188.748 151.427 182.428L153.84 177.118ZM184.988 161.08C176.994 160.735 169.571 161.351 163.377 167.108C160.222 170.041 157.595 173.99 155.775 177.877C156.884 182.649 159.708 186.626 163.851 189.244C168.963 192.476 175.406 193.396 181.263 191.966C182.359 191.69 183.446 191.386 184.526 191.052C188.652 189.315 192.588 186.679 195.324 183.09C198.083 179.471 198.899 175.888 198.205 171.456C197.801 170.449 197.366 169.51 196.821 168.57C194.235 164.115 189.726 162.308 184.988 161.08Z" fill="#240542"/>
<path d="M302.526 172.09C301.584 174.205 301.283 176.293 300.794 178.531C300.358 180.527 300.203 181.644 298.495 182.751C297.492 182.76 297.422 182.917 296.565 182.3C296.073 181.363 295.8 180.658 295.837 179.598C295.939 176.666 298.251 173.429 300.347 171.503C304.005 165.812 310.029 161.299 316.678 159.903C323.745 158.419 330.72 159.86 336.64 163.961C341.645 167.428 345.8 172.396 349.246 177.362C350.308 178.742 352.12 180.629 352.029 182.426C351.89 185.159 350.062 186.787 348.036 188.335C346.326 189.641 344.591 191.027 342.793 192.206C342.564 192.356 342.338 192.509 342.107 192.655C341.746 192.887 341.379 193.109 341.007 193.322C340.634 193.535 340.256 193.738 339.874 193.932C339.49 194.125 339.102 194.308 338.71 194.482C338.318 194.655 337.921 194.818 337.52 194.971C337.119 195.123 336.714 195.266 336.306 195.398C335.898 195.529 335.486 195.65 335.072 195.761C334.657 195.871 334.24 195.971 333.82 196.06C333.4 196.149 332.979 196.227 332.555 196.294C332.131 196.361 331.706 196.417 331.279 196.463C330.852 196.507 330.425 196.541 329.997 196.565C329.568 196.587 329.139 196.599 328.71 196.6C328.281 196.6 327.852 196.59 327.424 196.569C326.995 196.547 326.568 196.515 326.141 196.471C325.714 196.427 325.289 196.373 324.865 196.307C324.441 196.241 324.019 196.165 323.599 196.078C323.178 195.99 322.76 195.892 322.346 195.783C316.821 194.364 311.6 191.1 308.853 185.968C308.623 185.538 308.415 185.097 308.229 184.647C308.043 184.196 307.882 183.737 307.743 183.27C307.604 182.802 307.488 182.329 307.398 181.85C307.307 181.37 307.241 180.888 307.199 180.403C307.157 179.917 307.141 179.43 307.149 178.943C307.156 178.455 307.188 177.969 307.246 177.485C307.303 177.001 307.385 176.521 307.491 176.045C307.596 175.569 307.726 175.099 307.88 174.637C309.151 170.682 311.956 167.739 315.648 165.904C320.11 163.685 325.075 163.014 329.824 164.667C334.459 166.281 338.099 169.62 340.195 174.047C341.808 177.453 342.123 181.286 340.713 184.819C338.387 190.643 333.235 192.941 327.818 195.092C332.729 194.39 336.354 193.484 340.496 190.661C344.035 187.052 346.538 183.969 347.212 178.778C345.969 176.568 344.619 174.691 342.963 172.775C337.928 166.951 331.952 162.799 324.004 162.345C312.754 161.702 310.434 165.344 302.903 171.785C302.78 171.89 302.652 171.988 302.526 172.09ZM320.433 167.15C318.409 167.695 316.463 168.23 315.322 170.138C314.88 170.877 315.014 171.384 315.012 172.208C315.8 173.636 316.47 174.699 318.152 175.209C319.652 175.663 321.28 175.646 322.831 175.667C324.164 175.157 325.775 174.647 326.528 173.325C327.12 172.287 327.182 171.195 326.679 170.103C326.039 168.711 324.259 167.69 322.804 167.408C322.022 167.257 321.227 167.191 320.433 167.15ZM325.584 183.016C324.354 184.166 323.885 184.478 323.356 186.117C323.789 187.43 323.937 187.794 325.219 188.529C326.072 189.018 327.462 189.125 328.427 189.194C329.508 188.152 330.202 187.559 330.472 186.002C330.022 184.823 329.706 184.14 328.464 183.629C327.598 183.273 326.512 183.15 325.584 183.016Z" fill="#240542"/>
<path d="M155.775 177.876C157.595 173.989 160.222 170.04 163.377 167.107C169.571 161.35 176.994 160.734 184.988 161.079C189.726 162.307 194.235 164.114 196.821 168.569C197.366 169.509 197.801 170.448 198.205 171.455C198.899 175.887 198.083 179.47 195.324 183.089C192.588 186.678 188.652 189.314 184.526 191.051C183.447 191.385 182.359 191.69 181.263 191.965C175.406 193.395 168.963 192.475 163.851 189.243C159.708 186.625 156.884 182.648 155.775 177.876ZM177.415 162.198C172.306 162.82 168.17 164.091 164.919 168.415C162.623 171.469 161.541 175.418 162.204 179.202C162.924 183.314 165.35 187.194 168.877 189.468C169.229 189.692 169.59 189.902 169.959 190.097C170.328 190.293 170.705 190.473 171.088 190.638C171.472 190.803 171.862 190.952 172.257 191.086C172.653 191.22 173.054 191.337 173.459 191.439C173.864 191.541 174.272 191.626 174.684 191.694C175.096 191.762 175.51 191.814 175.926 191.849C176.342 191.885 176.759 191.903 177.177 191.905C177.594 191.907 178.011 191.892 178.428 191.86C182.752 191.581 187.054 189.777 189.99 186.527C190.329 186.151 190.647 185.759 190.946 185.349C191.245 184.941 191.521 184.518 191.776 184.08C192.031 183.643 192.262 183.194 192.471 182.732C192.68 182.271 192.864 181.8 193.025 181.32C193.185 180.84 193.32 180.352 193.43 179.858C193.54 179.364 193.624 178.866 193.683 178.362C193.742 177.86 193.774 177.355 193.781 176.849C193.788 176.343 193.768 175.837 193.723 175.333C193.68 174.856 193.612 174.382 193.52 173.911C193.428 173.441 193.312 172.976 193.173 172.517C193.034 172.058 192.872 171.607 192.687 171.165C192.502 170.723 192.295 170.291 192.066 169.869C191.837 169.449 191.588 169.04 191.317 168.644C191.046 168.248 190.756 167.867 190.447 167.5C190.138 167.134 189.811 166.785 189.466 166.451C189.121 166.119 188.76 165.804 188.383 165.507C185.409 163.172 181.178 161.936 177.415 162.198Z" fill="#FEFEFF"/>
<path d="M178.428 191.861C178.011 191.893 177.594 191.908 177.177 191.906C176.759 191.904 176.342 191.885 175.926 191.85C175.51 191.814 175.096 191.763 174.684 191.695C174.272 191.626 173.864 191.541 173.459 191.439C173.054 191.337 172.653 191.22 172.257 191.087C171.862 190.953 171.472 190.803 171.088 190.639C170.705 190.473 170.328 190.293 169.959 190.098C169.59 189.902 169.229 189.693 168.877 189.469C165.35 187.195 162.924 183.315 162.204 179.203C161.541 175.419 162.623 171.47 164.919 168.416C168.17 164.092 172.306 162.821 177.415 162.199C181.178 161.937 185.409 163.173 188.383 165.508C188.76 165.804 189.121 166.119 189.466 166.452C189.811 166.785 190.138 167.135 190.447 167.501C190.756 167.867 191.046 168.249 191.317 168.645C191.588 169.041 191.837 169.449 192.066 169.87C192.295 170.291 192.502 170.723 192.687 171.166C192.872 171.608 193.034 172.058 193.173 172.518C193.312 172.976 193.428 173.441 193.52 173.912C193.612 174.382 193.68 174.856 193.723 175.334C193.768 175.838 193.788 176.343 193.781 176.85C193.774 177.356 193.742 177.86 193.683 178.363C193.624 178.866 193.54 179.365 193.43 179.859C193.32 180.353 193.185 180.84 193.025 181.321C192.864 181.801 192.68 182.271 192.471 182.733C192.262 183.194 192.031 183.643 191.776 184.081C191.521 184.518 191.245 184.941 190.946 185.35C190.647 185.759 190.329 186.152 189.99 186.528C187.054 189.778 182.752 191.582 178.428 191.861ZM177.554 166.031C175.579 167.779 174.216 169.14 174.027 171.862C174.784 173.464 175.449 174.174 177.146 174.788C178.75 175.367 181.31 175.004 183.011 174.932C184.235 174.215 185.729 173.439 186.238 172.013C186.641 170.886 186.444 169.942 185.837 168.948C184.88 167.379 182.336 166.14 180.567 165.963C179.562 165.863 178.557 165.944 177.554 166.031Z" fill="#240542"/>
<path d="M183.011 174.932C181.31 175.004 178.75 175.367 177.146 174.788C175.449 174.174 174.784 173.464 174.027 171.862C174.216 169.14 175.579 167.779 177.554 166.031C178.557 165.944 179.562 165.863 180.567 165.963C182.336 166.14 184.88 167.379 185.837 168.948C186.444 169.942 186.641 170.886 186.238 172.013C185.729 173.439 184.235 174.215 183.011 174.932Z" fill="#FEFEFF"/>
<path d="M322.831 175.666C321.28 175.645 319.652 175.662 318.152 175.208C316.47 174.698 315.8 173.635 315.012 172.207C315.014 171.383 314.88 170.876 315.322 170.137C316.463 168.229 318.409 167.694 320.433 167.149C321.227 167.19 322.022 167.256 322.804 167.407C324.259 167.689 326.039 168.71 326.679 170.102C327.182 171.194 327.12 172.286 326.528 173.324C325.775 174.646 324.164 175.156 322.831 175.666Z" fill="#FEFEFF"/>
<path d="M328.427 189.194C327.462 189.125 326.072 189.018 325.219 188.529C323.937 187.794 323.789 187.43 323.356 186.117C323.885 184.478 324.354 184.166 325.584 183.016C326.512 183.15 327.598 183.273 328.464 183.629C329.706 184.14 330.022 184.823 330.472 186.002C330.202 187.559 329.508 188.152 328.427 189.194Z" fill="#FEFEFF"/>
<path d="M253.056 217.472C251.487 217.79 251.269 218.083 249.867 217.201C247.302 213.083 246.603 206.049 247.443 201.252C247.837 199.005 248.791 198.177 250.6 196.988C251.974 197.049 253.428 197.09 254.657 197.803C256.261 198.733 257.078 200.792 257.347 202.54C258.118 207.556 255.888 213.444 253.056 217.472Z" fill="#FEFEFF"/>
<path d="M180.811 244.494C179.672 244.353 178.639 244.309 177.68 243.609C177.041 243.141 177.133 242.806 176.973 242.093C177.586 240.555 178.393 239.897 179.628 238.884C180.515 238.994 181.356 239.187 182.231 239.375C183.236 240.235 183.337 240.188 183.532 241.476C183.002 242.99 182.041 243.58 180.811 244.494Z" fill="#240542"/>
<path d="M229.06 255.973C228.443 255.969 227.575 256.029 226.955 255.892C225.643 255.603 225.35 255.438 224.618 254.413C224.938 252.922 225.443 252.555 226.448 251.442C227.264 251.448 228.454 251.348 229.221 251.591C230.393 251.963 230.599 252.412 231.069 253.413C230.525 254.793 230.218 255.015 229.06 255.973Z" fill="#240542"/>
<path d="M279.31 256.73C278.685 256.759 278.054 256.792 277.428 256.78C275.729 256.748 274.742 256.363 273.561 255.164C273.404 253.756 273.589 253.43 274.152 252.106C275.163 252.059 276.234 251.967 277.242 252.06C278.55 252.181 279.165 252.545 280.036 253.475C280.203 254.917 279.999 255.462 279.31 256.73Z" fill="#240542"/>
<path d="M210 257.427C208.439 257.523 207.892 257.67 206.462 256.962L206.18 255.889C206.637 254.35 207.374 253.625 208.469 252.529C209.56 252.428 210.711 252.216 211.768 252.579C212.46 252.816 212.272 252.908 212.663 253.71C212.169 255.351 211.165 256.244 210 257.427Z" fill="#240542"/>
<path d="M191.76 259.192C190.174 259.665 189.534 260.108 187.939 259.565L187.545 258.475C187.956 256.807 188.506 255.915 189.578 254.582C190.656 254.42 191.687 254.414 192.774 254.404C193.889 255.039 193.893 254.949 194.262 256.165C193.643 257.668 193.004 258.245 191.76 259.192Z" fill="#240542"/>
<path d="M302.149 259.687C300.374 259.326 297.841 259.163 296.516 257.865C296.172 256.374 296.451 255.891 296.902 254.46C297.206 254.457 297.509 254.449 297.813 254.45C299.559 254.454 300.909 254.695 302.186 255.99C302.768 257.534 302.559 258.16 302.149 259.687Z" fill="#240542"/>
<path d="M333.669 261.334L332.207 258.121C337.003 257.065 343.384 257.855 348.34 258.052C351.103 266.988 352.245 275.292 352.959 284.562C349.032 281.957 344.055 280.374 339.687 278.614C337.937 272.72 336.101 266.992 333.669 261.334Z" fill="#FEFEFF"/>
<path d="M111.551 260.711C118.214 259.423 125.146 258.826 131.907 258.259C138 257.481 144.594 257.956 150.737 258.018C147.729 266.619 145.713 275.092 144.312 284.072C137.731 287.511 131.63 291.472 125.571 295.741L117.457 301.62C114.044 288.105 111.95 274.664 111.551 260.711Z" fill="#FEFEFF"/>
<path d="M322.372 263.75C320.84 263.617 318.933 263.528 317.719 262.484C316.572 261.498 316.578 260.36 316.492 258.982C318.384 259.037 319.813 258.917 321.457 260.019C322.347 261.439 322.364 262.136 322.372 263.75Z" fill="#240542"/>
<path d="M289.528 275.97C287.771 275.915 286.541 275.756 285.188 274.59C284.739 272.957 284.902 272.605 285.332 271.024C287.33 271.176 288.827 271.249 290.285 272.738C290.41 274.22 290.125 274.642 289.528 275.97Z" fill="#240542"/>
<path d="M216.708 275.863C215.942 275.973 214.945 276.206 214.183 276.123C212.87 275.98 212.696 275.665 212.001 274.68C212.009 273.254 212.57 272.539 213.339 271.414C215.208 271.414 216.431 271.408 217.858 272.736C217.84 274.26 217.496 274.598 216.708 275.863Z" fill="#240542"/>
<path d="M198.399 278.952C197.809 278.939 196.871 278.992 196.279 278.829C194.984 278.472 194.793 278.255 194.219 277.154C194.439 275.68 195.151 275.049 196.136 274.026L198.482 273.965C199.594 274.562 199.707 274.602 200.279 275.715C199.859 277.434 199.563 277.705 198.399 278.952Z" fill="#240542"/>
<path d="M307.928 279.215C306.18 279.454 305.032 279.474 303.544 278.433C302.735 276.969 302.715 276.013 302.754 274.359C304.589 274.428 305.661 274.613 307.117 275.806C307.772 277.102 307.98 277.711 307.928 279.215Z" fill="#240542"/>
<path d="M180.14 281.25C178.692 281.013 178.169 281.029 177.004 280.087L176.955 278.812C177.932 277.166 178.992 276.219 180.471 275.019C181.503 274.915 182.168 274.914 183.164 275.213C183.66 275.906 183.842 275.837 183.762 276.562C183.535 278.634 181.709 280.115 180.14 281.25Z" fill="#240542"/>
<path d="M325.113 281.829C323.564 281.824 322.243 281.594 321.182 280.337C319.938 278.862 320.008 277.199 320.222 275.407C322.218 275.957 323.709 276.545 325.078 278.127C325.668 279.706 325.535 280.273 325.113 281.829Z" fill="#240542"/>
<path d="M117.817 303.147C125.41 296.489 134.808 290.851 143.676 286.084C144.195 287.175 144.053 289.084 144.142 290.323C144.667 297.6 145.71 303.094 149.625 309.355C144.265 320.274 140.336 331.747 136.144 343.145C134.476 340.845 132.944 338.433 131.368 336.069C125.492 326.247 119.836 314.481 117.817 303.147Z" fill="#FEFEFF"/>
<path d="M351.794 309.111C354.443 302.193 356.231 296.153 356.947 288.757C366.914 292.626 376.289 298.489 385.722 303.508C384.052 308.572 382.116 313.532 379.913 318.389C377.711 323.245 375.255 327.969 372.546 332.563C370.619 335.618 368.652 338.548 366.43 341.397C362.16 330.492 357.907 319.126 351.794 309.111Z" fill="#FEFEFF"/>
<path d="M196.873 304.998L195.766 305.069L195.489 304.463C195.868 301.783 198.014 299.631 199.84 297.772C200.706 297.902 201.225 298.038 201.968 298.509C202.101 299 202.25 299.433 202.233 299.958C202.188 301.353 201.267 302.714 200.309 303.673C199.043 304.94 198.653 305.022 196.873 304.998Z" fill="#240542"/>
<path d="M305.996 304.367C304.262 303.681 302.946 303.096 301.525 301.875C300.858 300.3 300.902 300.115 301.216 298.421C301.461 298.446 301.707 298.46 301.951 298.494C303.77 298.749 304.865 299.141 306.027 300.621C306.472 302.161 306.35 302.859 305.996 304.367Z" fill="#240542"/>
<path d="M345.544 318.035L349.177 314.022C352.16 317.428 354.247 324.118 356.038 328.318C373.043 368.219 383.802 411.904 391.022 454.59C389.731 455.833 388.366 457.008 387.03 458.203L386.167 458.429C383.979 455.466 380.3 429.917 378.573 423.544C372.816 402.299 367.859 380.922 360.965 359.991C356.343 345.957 349.63 331.845 345.544 318.035Z" fill="#FEFEFF"/>
<path d="M207.042 338.609C206.903 338.374 206.759 338.142 206.624 337.905C204.514 334.173 203.704 327.65 204.954 323.577C205.584 321.522 207.037 320.897 208.791 319.933C209.21 320.118 209.22 320.036 209.428 320.443C210.604 322.745 210.61 334.172 209.697 336.511C209.071 338.117 208.574 338.044 207.042 338.609Z" fill="#FEFEFF"/>
<path d="M297.891 338.873C296.377 338.976 295.944 339.188 294.631 338.357C292.17 334.401 293.281 325.293 293.297 320.483C294.814 320.667 296.137 320.928 297.603 321.358C297.951 321.79 298.054 321.863 298.276 322.46C299.57 325.944 299.261 335.466 297.891 338.873Z" fill="#FEFEFF"/>
<path d="M316.956 376.462C315.518 376.873 315.098 377.058 313.602 376.718C311.643 373.607 313.112 367.186 313.245 363.454C313.7 350.679 312.375 337.939 310.691 325.301C311.746 325.473 312.994 325.575 313.998 325.925C314.87 326.229 315.326 326.467 315.748 327.262C319.182 333.729 319.053 369.092 316.956 376.462Z" fill="#FEFEFF"/>
<path d="M168.176 426.873C167.467 426.985 166.692 427.146 165.968 427.16C164.762 427.183 164.235 426.989 163.356 426.2C160.007 416.188 163.633 365.368 165.053 352.469C165.999 343.479 167.435 334.567 169.36 325.734L175.068 327.448C171.042 350.985 168.988 374.31 168.344 398.176C168.086 407.733 168.718 417.329 168.176 426.873Z" fill="#FEFEFF"/>
<path d="M189.067 377.77C188.073 377.578 186.361 377.246 185.757 376.386C182.22 371.356 184.608 337.626 185.586 330.202C185.803 328.552 185.811 327.399 187.17 326.364C188.598 326.222 190.011 326.167 191.445 326.129C191.531 326.354 191.674 326.565 191.701 326.804C192.044 329.81 190.048 341.76 189.808 346.303C189.366 354.672 189.959 362.816 190.223 371.168C190.3 373.574 190.546 375.727 189.067 377.77Z" fill="#FEFEFF"/>
<path d="M338.111 427.689C337.942 427.601 337.766 427.524 337.603 427.424C335.821 426.338 336.202 424.173 336.104 422.347C335.326 407.969 334.27 393.664 333.127 379.312C331.856 363.347 330.576 347.621 327.165 331.974C326.765 330.141 326.625 328.762 327.652 327.139L330.375 326.6C330.857 326.609 331.326 326.811 331.786 326.95C336.758 335.92 343.107 412.888 341.121 423.819C340.73 425.971 339.779 426.501 338.111 427.689Z" fill="#FEFEFF"/>
<path d="M255.04 31.055C253.053 31.4606 251.055 31.6165 249.089 31.0086C248.802 30.9177 248.52 30.813 248.244 30.6943C247.967 30.5752 247.698 30.4426 247.435 30.2966C247.171 30.1502 246.916 29.9911 246.67 29.8194C246.422 29.6477 246.184 29.464 245.956 29.2681C245.727 29.0723 245.509 28.8654 245.302 28.6476C245.094 28.4297 244.898 28.2018 244.713 27.964C244.529 27.7267 244.357 27.4804 244.197 27.2253C244.037 26.9706 243.89 26.7084 243.757 26.4385C242.517 23.9901 242.285 20.9707 243.239 18.3884C244.299 15.5163 246.258 14.1145 248.935 12.8631C250.766 12.6016 252.622 12.4961 254.422 13.0222C257 13.7766 259.313 15.5494 260.568 17.9395C260.707 18.2046 260.834 18.4761 260.947 18.7538C261.06 19.031 261.158 19.3135 261.243 19.6012C261.327 19.8889 261.397 20.18 261.452 20.4746C261.507 20.7691 261.548 21.0655 261.573 21.3637C261.598 21.6624 261.609 21.9617 261.605 22.2615C261.6 22.5607 261.58 22.8592 261.545 23.1569C261.511 23.4546 261.462 23.7499 261.397 24.0429C261.333 24.3353 261.255 24.6241 261.162 24.9091C260.126 28.0561 257.899 29.6745 255.04 31.055Z" fill="#240542"/>
<path d="M139.462 62.6046C137.82 62.8787 136.215 63.2189 134.572 62.7708C131.899 62.0423 129.753 60.4342 128.468 57.9582C127.251 55.6121 126.94 52.755 127.764 50.2294C128.923 46.6784 131.364 45.0506 134.557 43.537C136.02 43.4488 137.509 43.3873 138.947 43.7212C141.606 44.3379 144.07 46.0381 145.462 48.3984C146.769 50.6145 147.134 53.3637 146.341 55.82C145.194 59.3718 142.633 61.0666 139.462 62.6046Z" fill="#240542"/>
<path d="M369.17 63.7329C367.623 63.9542 366.312 63.866 364.811 63.3959C362.121 62.5548 360.025 60.8931 358.779 58.3415C358.633 58.0359 358.502 57.7238 358.387 57.4051C358.271 57.0865 358.172 56.7628 358.09 56.4341C358.007 56.1055 357.94 55.7736 357.89 55.4387C357.841 55.1032 357.808 54.7664 357.792 54.4283C357.776 54.0896 357.776 53.7513 357.794 53.4132C357.811 53.0745 357.846 52.7377 357.898 52.4028C357.949 52.0678 358.016 51.7362 358.101 51.4081C358.185 51.08 358.286 50.7568 358.403 50.4386C359.517 47.3689 361.528 45.6331 364.424 44.3046C366.097 44.2085 367.718 44.3038 369.324 44.8283C369.649 44.9328 369.967 45.0533 370.279 45.1898C370.592 45.3263 370.896 45.478 371.193 45.6449C371.49 45.8124 371.777 45.9944 372.056 46.1907C372.334 46.3876 372.602 46.5979 372.859 46.8215C373.116 47.0447 373.361 47.2807 373.594 47.5295C373.828 47.7778 374.048 48.0372 374.255 48.3076C374.461 48.5785 374.653 48.8591 374.832 49.1495C375.011 49.4398 375.174 49.7383 375.322 50.0449C375.464 50.3441 375.59 50.6502 375.7 50.9632C375.811 51.2755 375.905 51.5929 375.982 51.9153C376.06 52.2371 376.12 52.5624 376.164 52.891C376.208 53.2197 376.234 53.5497 376.244 53.8809C376.253 54.2117 376.246 54.5425 376.222 54.8732C376.197 55.2035 376.156 55.5319 376.097 55.8584C376.039 56.1845 375.963 56.5066 375.871 56.8247C375.779 57.1434 375.671 57.4563 375.547 57.7635C374.316 60.7907 372.083 62.469 369.17 63.7329Z" fill="#240542"/>
<path d="M52.2439 147.355C50.3972 147.214 48.7175 147.037 47.0631 146.143C46.7637 145.982 46.4733 145.806 46.1918 145.616C45.9102 145.426 45.639 145.222 45.3779 145.004C45.1174 144.786 44.8687 144.555 44.6318 144.312C44.395 144.068 44.171 143.813 43.9598 143.546C43.7487 143.28 43.5517 143.004 43.3689 142.717C43.1867 142.431 43.0191 142.136 42.8663 141.832C42.714 141.528 42.5774 141.218 42.4566 140.9C42.3358 140.582 42.2316 140.26 42.1439 139.931C42.0562 139.61 41.9852 139.284 41.9311 138.955C41.8776 138.626 41.8408 138.295 41.8208 137.962C41.8009 137.629 41.798 137.296 41.8122 136.962C41.8269 136.629 41.8587 136.298 41.9075 135.968C41.9558 135.638 42.0212 135.311 42.1037 134.987C42.1861 134.664 42.2849 134.346 42.3999 134.033C42.5155 133.72 42.6465 133.414 42.793 133.114C42.9396 132.815 43.1013 132.523 43.2783 132.24C45.0234 129.443 47.6287 128.151 50.7486 127.451C52.7394 127.513 54.5491 127.807 56.2792 128.845C56.5696 129.021 56.8506 129.212 57.1222 129.416C57.3937 129.621 57.654 129.839 57.9029 130.07C58.1524 130.301 58.3893 130.544 58.6135 130.799C58.8383 131.054 59.0495 131.32 59.247 131.597C59.4444 131.874 59.6272 132.16 59.7953 132.455C59.9639 132.75 60.117 133.053 60.2546 133.363C60.3927 133.674 60.5143 133.991 60.6194 134.314C60.7249 134.637 60.814 134.965 60.8864 135.297C61.4883 137.992 61.0629 140.854 59.5148 143.164C57.7201 145.841 55.2904 146.786 52.2439 147.355Z" fill="#240542"/>
<path d="M455.241 147.386C453.656 147.716 452.186 147.899 450.588 147.515C448.03 146.899 445.797 145.364 444.498 143.049C444.332 142.748 444.182 142.439 444.049 142.123C443.915 141.807 443.798 141.485 443.697 141.157C443.597 140.828 443.514 140.496 443.449 140.159C443.384 139.821 443.336 139.482 443.306 139.14C443.275 138.798 443.263 138.456 443.269 138.113C443.275 137.769 443.298 137.427 443.339 137.086C443.38 136.746 443.439 136.408 443.515 136.073C443.592 135.738 443.686 135.409 443.797 135.084C444.875 131.866 446.976 130.074 449.925 128.587C451.829 128.433 453.562 128.322 455.392 128.966C457.975 129.876 460.215 131.828 461.345 134.337C461.478 134.629 461.595 134.926 461.698 135.229C461.8 135.532 461.887 135.84 461.958 136.152C462.029 136.464 462.083 136.779 462.122 137.097C462.161 137.415 462.183 137.734 462.189 138.053C462.194 138.374 462.184 138.693 462.156 139.012C462.13 139.331 462.086 139.648 462.026 139.962C461.967 140.277 461.891 140.588 461.799 140.894C461.708 141.201 461.601 141.503 461.479 141.798C460.298 144.595 457.989 146.309 455.241 147.386Z" fill="#240542"/>
<path d="M485.116 261.237C483.38 261.324 481.695 261.266 480.033 260.694C479.715 260.587 479.404 260.463 479.1 260.324C478.794 260.185 478.497 260.031 478.207 259.862C477.918 259.693 477.637 259.511 477.366 259.314C477.094 259.117 476.833 258.907 476.583 258.684C476.333 258.461 476.094 258.226 475.868 257.979C475.641 257.732 475.427 257.474 475.226 257.205C475.025 256.937 474.838 256.66 474.665 256.373C474.492 256.086 474.333 255.791 474.19 255.488C474.051 255.196 473.928 254.898 473.821 254.592C473.713 254.287 473.622 253.978 473.548 253.663C473.473 253.349 473.415 253.031 473.374 252.711C473.332 252.39 473.308 252.068 473.3 251.746C473.293 251.422 473.302 251.099 473.329 250.778C473.355 250.455 473.398 250.135 473.459 249.818C473.519 249.5 473.595 249.186 473.688 248.877C473.781 248.567 473.89 248.264 474.015 247.965C475.313 244.933 477.77 243.493 480.734 242.411C482.831 242.257 484.689 242.149 486.668 242.982C486.975 243.109 487.276 243.252 487.569 243.41C487.862 243.567 488.148 243.738 488.424 243.924C488.701 244.11 488.967 244.309 489.224 244.521C489.48 244.733 489.726 244.957 489.961 245.193C490.195 245.43 490.417 245.677 490.627 245.935C490.837 246.194 491.034 246.462 491.217 246.74C491.4 247.018 491.569 247.305 491.724 247.599C491.879 247.894 492.019 248.195 492.144 248.504C492.266 248.804 492.371 249.11 492.461 249.422C492.552 249.734 492.626 250.049 492.683 250.368C492.741 250.687 492.782 251.008 492.806 251.331C492.831 251.655 492.839 251.978 492.83 252.302C492.821 252.626 492.795 252.949 492.753 253.271C492.711 253.592 492.652 253.911 492.577 254.226C492.502 254.541 492.411 254.852 492.304 255.158C492.197 255.464 492.075 255.764 491.937 256.057C490.516 259.035 488.123 260.277 485.116 261.237Z" fill="#240542"/>
<path d="M22.8751 262.851C20.759 262.863 18.6279 262.55 16.782 261.458C14.4508 260.08 12.8412 257.857 12.1724 255.244C11.4838 252.555 11.8344 249.575 13.3179 247.206C15.0038 244.513 17.4075 243.444 20.4178 242.851C22.489 242.878 24.3704 243.133 26.1714 244.211C26.4608 244.388 26.7405 244.578 27.0104 244.782C27.2809 244.987 27.5404 245.204 27.7888 245.434C28.0372 245.664 28.2736 245.906 28.4979 246.161C28.7227 246.414 28.9338 246.679 29.1313 246.954C29.3293 247.229 29.5131 247.513 29.6828 247.806C29.8524 248.099 30.0068 248.4 30.146 248.709C30.2857 249.018 30.4094 249.332 30.5171 249.653C30.6253 249.975 30.7169 250.3 30.792 250.631C31.4262 253.295 31.0741 256.109 29.5977 258.437C27.9779 260.99 25.7278 262.129 22.8751 262.851Z" fill="#240542"/>
<path d="M54.0827 377.369C51.9383 377.839 49.9702 377.878 47.8904 377.072C45.2866 376.062 43.2776 374.003 42.1691 371.458C41.0039 368.784 40.8258 365.594 41.9682 362.883C43.3099 359.698 45.4741 358.31 48.56 357.029C50.3279 356.853 52.2108 356.811 53.9157 357.368C54.2781 357.485 54.6332 357.621 54.9809 357.776C55.3291 357.93 55.6681 358.102 55.998 358.292C56.3278 358.482 56.6469 358.688 56.9552 358.911C57.2635 359.134 57.5594 359.373 57.8431 359.627C58.1262 359.881 58.3956 360.149 58.6514 360.431C58.9066 360.714 59.1464 361.008 59.3707 361.316C59.5955 361.623 59.8035 361.941 59.9946 362.27C60.1858 362.599 60.3594 362.937 60.5154 363.284C60.6635 363.619 60.794 363.961 60.907 364.31C61.0199 364.658 61.1144 365.012 61.1906 365.37C61.2672 365.728 61.325 366.089 61.3639 366.453C61.4028 366.818 61.4227 367.183 61.4238 367.55C61.4248 367.916 61.407 368.281 61.3702 368.646C61.3334 369.01 61.278 369.372 61.204 369.73C61.1294 370.089 61.0367 370.443 60.9259 370.792C60.815 371.141 60.6866 371.484 60.5406 371.82C59.2344 374.754 56.978 376.244 54.0827 377.369Z" fill="#240542"/>
<path d="M454.593 377.139C452.541 377.232 450.605 376.923 448.79 375.926C448.517 375.779 448.252 375.618 447.996 375.444C447.74 375.271 447.493 375.084 447.255 374.884C447.018 374.686 446.791 374.475 446.575 374.253C446.359 374.03 446.155 373.797 445.963 373.554C445.77 373.311 445.591 373.059 445.425 372.798C445.259 372.536 445.106 372.267 444.968 371.99C444.828 371.713 444.704 371.43 444.594 371.14C444.484 370.85 444.39 370.555 444.31 370.256C443.529 367.4 444.058 364.216 445.656 361.732C447.452 358.94 449.807 357.741 452.959 357.011C454.666 357.097 456.321 357.345 457.876 358.098C458.171 358.24 458.458 358.396 458.737 358.567C459.016 358.737 459.286 358.922 459.546 359.121C459.806 359.32 460.054 359.532 460.292 359.757C460.53 359.982 460.755 360.218 460.969 360.466C461.181 360.715 461.381 360.973 461.567 361.242C461.754 361.511 461.925 361.789 462.083 362.076C462.24 362.363 462.382 362.657 462.509 362.958C462.636 363.26 462.747 363.567 462.841 363.88C462.945 364.204 463.031 364.532 463.101 364.865C463.172 365.197 463.225 365.532 463.26 365.87C463.297 366.208 463.315 366.547 463.317 366.887C463.319 367.227 463.303 367.566 463.271 367.904C463.238 368.242 463.188 368.578 463.122 368.911C463.054 369.244 462.971 369.573 462.871 369.898C462.771 370.223 462.654 370.542 462.522 370.855C462.389 371.168 462.241 371.473 462.078 371.771C460.326 374.909 457.901 376.149 454.593 377.139Z" fill="#240542"/>
<path d="M140.069 466.377C137.74 466.64 135.497 466.519 133.342 465.506C133.038 465.366 132.743 465.211 132.455 465.042C132.167 464.873 131.888 464.689 131.619 464.491C131.35 464.293 131.092 464.082 130.844 463.858C130.596 463.634 130.361 463.398 130.137 463.149C129.913 462.901 129.703 462.643 129.506 462.373C129.308 462.103 129.125 461.825 128.957 461.536C128.788 461.248 128.634 460.952 128.495 460.648C128.357 460.345 128.234 460.035 128.126 459.718C128.018 459.384 127.927 459.046 127.851 458.704C127.776 458.361 127.718 458.015 127.677 457.666C127.635 457.318 127.611 456.969 127.603 456.618C127.596 456.268 127.606 455.917 127.632 455.567C127.659 455.217 127.703 454.87 127.763 454.524C127.824 454.179 127.901 453.837 127.995 453.499C128.089 453.161 128.199 452.828 128.326 452.501C128.452 452.173 128.594 451.853 128.751 451.539C130.275 448.505 132.605 447.095 135.703 445.991C137.823 445.839 139.879 445.969 141.864 446.797C142.183 446.927 142.494 447.072 142.798 447.233C143.102 447.394 143.398 447.569 143.685 447.759C143.971 447.949 144.248 448.153 144.514 448.37C144.781 448.588 145.036 448.818 145.28 449.061C145.524 449.304 145.755 449.558 145.973 449.823C146.192 450.089 146.397 450.365 146.588 450.651C146.779 450.937 146.955 451.231 147.117 451.535C147.279 451.838 147.425 452.149 147.557 452.467C148.588 455.005 148.583 457.986 147.435 460.487C145.917 463.79 143.358 465.209 140.069 466.377Z" fill="#240542"/>
<path d="M369.361 466.364C367.107 466.724 365.012 466.692 362.855 465.851C360.341 464.87 358.257 462.937 357.24 460.424C356.239 457.95 356.376 455.092 357.452 452.664C358.831 449.555 361.055 448.016 364.107 446.769C365.959 446.661 367.778 446.54 369.564 447.149C372.41 448.121 374.765 450.079 375.989 452.856C376.12 453.156 376.236 453.462 376.335 453.774C376.435 454.086 376.519 454.403 376.586 454.723C376.653 455.044 376.704 455.367 376.738 455.693C376.772 456.019 376.789 456.345 376.79 456.673C376.79 457.001 376.773 457.327 376.74 457.653C376.707 457.979 376.658 458.303 376.591 458.624C376.525 458.944 376.442 459.261 376.343 459.573C376.244 459.886 376.13 460.193 376 460.493C374.74 463.431 372.283 465.292 369.361 466.364Z" fill="#240542"/>
<path d="M254.957 496.432C252.84 496.753 250.658 496.782 248.62 496.046C248.307 495.934 248 495.807 247.7 495.664C247.4 495.522 247.107 495.364 246.823 495.192C246.539 495.02 246.264 494.834 245.998 494.634C245.733 494.434 245.479 494.22 245.235 493.994C244.991 493.768 244.759 493.531 244.539 493.282C244.32 493.033 244.113 492.773 243.919 492.503C243.726 492.233 243.547 491.954 243.381 491.665C243.216 491.377 243.066 491.081 242.931 490.778C242.8 490.482 242.685 490.181 242.586 489.873C242.486 489.566 242.401 489.255 242.333 488.939C242.264 488.623 242.212 488.305 242.175 487.984C242.138 487.663 242.118 487.341 242.114 487.017C242.109 486.695 242.121 486.372 242.149 486.05C242.177 485.728 242.221 485.409 242.281 485.092C242.341 484.774 242.417 484.461 242.509 484.151C242.601 483.841 242.707 483.537 242.83 483.237C244.107 480.156 246.456 478.715 249.411 477.499C251.368 477.266 253.152 477.126 255.063 477.716C257.647 478.514 259.894 480.364 261.074 482.807C261.216 483.098 261.343 483.395 261.453 483.698C261.565 484.001 261.66 484.309 261.74 484.623C261.82 484.935 261.884 485.252 261.931 485.572C261.979 485.891 262.01 486.212 262.025 486.535C262.039 486.858 262.037 487.18 262.019 487.503C262.001 487.825 261.966 488.146 261.915 488.465C261.864 488.784 261.797 489.1 261.713 489.412C261.63 489.724 261.531 490.031 261.416 490.333C260.22 493.45 257.922 495.152 254.957 496.432Z" fill="#240542"/>
<path d="M112.893 455.817C114.85 447.203 115.833 438.35 117.673 429.698C126.064 390.251 135.742 350.358 152.125 313.385C153.965 314.732 155.375 317.056 156.755 318.869C151.666 332.46 146.6 345.952 142.262 359.818C135.757 380.612 130.466 402.195 125.75 423.458C123.071 435.533 121.53 447.818 118.872 459.876L118.51 459.53C116.763 457.836 115.037 456.888 112.893 455.817Z" fill="#FEFEFF"/>
<path d="M264.839 506.385C197.678 508.761 140.392 488.904 89.1 445.185C36.561 400.404 6.87301 339.796 1.42801 271.218C1.27068 269.174 1.138 267.128 1.03 265.08C0.922668 263.032 0.839985 260.984 0.781985 258.935C0.724652 256.885 0.692333 254.835 0.685 252.785C0.677 250.735 0.694335 248.685 0.737002 246.635C0.779669 244.585 0.847338 242.536 0.940005 240.488C1.03267 238.44 1.15034 236.393 1.293 234.347C1.43567 232.301 1.60333 230.258 1.79599 228.218C1.98799 226.176 2.20533 224.138 2.448 222.102C2.69 220.066 2.957 218.033 3.249 216.004C3.541 213.974 3.85798 211.949 4.19998 209.927C4.54132 207.905 4.90734 205.888 5.29801 203.876C5.68867 201.863 6.10401 199.855 6.54401 197.853C6.98401 195.85 7.44832 193.853 7.93698 191.862C8.42565 189.87 8.93834 187.885 9.47501 185.907C10.0123 183.928 10.5737 181.956 11.159 179.991C11.7443 178.026 12.3533 176.069 12.986 174.119C13.6193 172.169 14.2763 170.226 14.957 168.292C15.6377 166.358 16.3417 164.432 17.069 162.516C17.797 160.599 18.548 158.691 19.322 156.793C20.096 154.894 20.8933 153.005 21.714 151.127C22.534 149.247 23.377 147.378 24.243 145.52C25.109 143.662 25.9977 141.814 26.909 139.978C27.8203 138.141 28.7537 136.316 29.709 134.502C30.665 132.688 31.643 130.886 32.643 129.096C33.6423 127.306 34.6637 125.528 35.707 123.763C36.7503 121.997 37.815 120.245 38.901 118.507C39.987 116.767 41.094 115.042 42.222 113.33C43.35 111.618 44.499 109.92 45.669 108.236C46.8383 106.552 48.0283 104.882 49.239 103.228C50.4497 101.573 51.68 99.933 52.93 98.3077C54.1807 96.683 55.451 95.0737 56.741 93.4797C58.0303 91.8864 59.3393 90.3087 60.668 88.7467C94.396 49.3427 140.671 19.7597 191.28 7.6247C206.881 3.8837 222.924 2.00969 238.893 0.765694C238.972 0.756694 239.05 0.742709 239.128 0.737709C255.468 -0.411291 272.543 0.858691 288.707 3.36869C335.303 10.6057 377.917 29.5127 413.787 60.2707C466.807 105.737 496.944 166.579 502.13 236.081C502.277 238.111 502.398 240.144 502.495 242.178C502.592 244.212 502.665 246.247 502.712 248.283C502.759 250.318 502.782 252.354 502.779 254.39C502.777 256.426 502.75 258.462 502.698 260.498C502.646 262.533 502.569 264.568 502.468 266.602C502.366 268.636 502.24 270.668 502.089 272.698C501.938 274.728 501.762 276.757 501.561 278.784C501.361 280.81 501.136 282.833 500.886 284.855C500.636 286.875 500.361 288.893 500.062 290.907C499.763 292.921 499.44 294.931 499.092 296.938C498.743 298.944 498.371 300.945 497.974 302.943C497.577 304.94 497.156 306.932 496.711 308.919C496.266 310.905 495.796 312.886 495.302 314.862C494.808 316.838 494.29 318.807 493.749 320.77C493.207 322.732 492.641 324.688 492.052 326.638C491.463 328.586 490.85 330.528 490.213 332.462C489.576 334.396 488.915 336.322 488.232 338.24C487.548 340.158 486.841 342.067 486.111 343.969C485.38 345.869 484.627 347.761 483.851 349.643C483.074 351.525 482.275 353.398 481.453 355.261C480.631 357.124 479.786 358.977 478.919 360.819C478.052 362.661 477.162 364.493 476.251 366.313C475.339 368.133 474.405 369.943 473.449 371.741C472.493 373.539 471.515 375.325 470.515 377.099C469.516 378.873 468.495 380.634 467.452 382.384C466.41 384.133 465.347 385.869 464.262 387.592C463.177 389.315 462.071 391.025 460.944 392.721C459.818 394.417 458.671 396.1 457.503 397.768C456.336 399.436 455.148 401.089 453.94 402.729C452.733 404.368 451.505 405.992 450.258 407.602C449.011 409.212 447.744 410.806 446.457 412.384C445.171 413.962 443.866 415.525 442.541 417.072C441.156 418.686 439.752 420.283 438.327 421.863C436.902 423.442 435.459 425.004 433.996 426.548C432.533 428.092 431.051 429.617 429.55 431.124C428.049 432.631 426.529 434.119 424.992 435.589C423.454 437.059 421.898 438.509 420.325 439.94C418.752 441.371 417.161 442.782 415.552 444.174C413.943 445.566 412.318 446.937 410.675 448.289C409.033 449.64 407.374 450.971 405.699 452.281C404.023 453.591 402.331 454.881 400.624 456.15C398.917 457.418 397.195 458.665 395.456 459.891C393.718 461.117 391.965 462.321 390.197 463.504C388.429 464.686 386.647 465.846 384.85 466.985C383.053 468.123 381.243 469.238 379.418 470.332C377.594 471.426 375.756 472.497 373.905 473.545C372.054 474.593 370.191 475.618 368.315 476.62C366.438 477.622 364.55 478.6 362.65 479.555C360.749 480.51 358.837 481.442 356.914 482.35C354.991 483.258 353.056 484.142 351.111 485.002C349.166 485.861 347.21 486.697 345.243 487.509C343.277 488.32 341.301 489.107 339.316 489.87C337.331 490.632 335.336 491.37 333.332 492.084C331.328 492.797 329.316 493.485 327.295 494.149C325.274 494.812 323.246 495.45 321.209 496.064C319.172 496.677 317.128 497.265 315.077 497.828C313.026 498.39 310.968 498.927 308.903 499.439C306.839 499.951 304.769 500.437 302.692 500.898C300.615 501.358 298.533 501.792 296.446 502.202C294.359 502.61 292.267 502.993 290.17 503.351C288.073 503.708 285.972 504.039 283.867 504.344C281.762 504.649 279.654 504.928 277.542 505.181C275.43 505.434 273.315 505.661 271.198 505.862C269.081 506.062 266.961 506.237 264.839 506.385ZM185.737 218.853C174.5 229.019 164.647 241.553 158.463 255.436L158.751 256.168C160.826 256.569 162.958 257.062 165.062 257.245C168.23 257.52 173.284 256.401 175.738 258.624C175.233 259.779 175.153 259.704 173.994 260.246C169.41 260.008 163.996 259.436 159.568 258.25C158.325 258.504 157.775 258.357 157.074 259.5C154.488 263.716 152.026 275.648 152.31 280.512C152.523 280.417 152.737 280.324 152.948 280.226C156.366 278.632 158.296 274.821 162.071 274.476C162.718 274.832 162.981 274.78 163.218 275.549C163.479 276.401 163.452 277.264 163.071 278.088C162.465 279.4 161.404 279.646 160.11 279.923C157.381 280.505 155.177 280.546 152.545 281.768C149.877 285.898 151.198 294.991 152.181 299.592C152.434 300.773 152.715 301.942 153.083 303.093L153.61 302.514C160.516 294.858 164.39 284.805 171.171 276.989L171.626 277.277C171.426 280.995 165.553 287.582 163.509 291.132C160.483 296.39 158.8 302.287 155.762 307.498C158.295 311.403 162.162 316.066 166.768 317.499C167.011 317.574 167.267 317.602 167.517 317.653C167.985 315.288 168.478 312.971 169.154 310.653L166.916 306.693C167.906 304.076 168.993 301.453 169.846 298.79L172.096 297.284C172.992 297.521 173.035 297.296 173.375 298.003C174.944 301.27 170.098 314.812 169.02 318.553C169.979 319.092 169.894 319.011 170.885 319.001L171.918 316.551L172.232 316.836C172.209 318.052 172.445 319.036 173.307 319.968C174.27 321.008 174.964 320.975 176.263 321.059C181.324 317.966 178.017 305.16 182.534 300.417C183.353 299.558 184.698 298.968 185.869 299.028C186.659 299.068 186.77 299.408 187.299 299.919C187.922 303.984 184.466 305.291 183.207 308.638C182.315 311.011 182.221 313.981 181.939 316.499L185.285 320.319C185.734 320.261 186.182 320.199 186.629 320.134C205.077 317.418 233.741 304.281 245.023 288.915C246.932 286.316 248.426 283.456 249.049 280.273C249.837 276.252 250.157 239.563 249.314 234.871C248.564 230.696 242.55 229.704 239.496 227.528C234.542 223.999 231.338 218.336 226.155 214.869C223.314 217.906 220.218 221.743 216.099 223.007C214.638 223.455 213.058 223.515 211.716 222.67C210.187 221.708 209.518 219.938 209.261 218.23C208.256 211.574 211.7 202.687 215.787 197.483C218.386 194.175 221.83 191.612 225.883 190.405C236.421 187.267 242.118 193.725 251.682 193.44C257.35 193.272 261.953 189.983 267.412 189.478C273.773 188.89 279.699 192.192 284.365 196.234C289.646 200.809 295.639 208.168 296.021 215.399C296.14 217.65 295.681 220.793 293.945 222.428C292.733 223.57 291.443 224.013 289.805 223.883C284.709 223.481 280.363 218.465 277.113 214.947C270.564 226.07 264.868 227.622 254.121 232.925C253.299 240.681 253.008 277.055 255.5 283.138C260.893 296.308 281.85 308.01 294.218 313.208C297.454 314.568 310.321 320.012 313.444 318.735L313.957 317.299C314.563 317.975 315.14 318.592 315.921 319.078C317.634 320.146 318.931 319.883 320.719 319.354C325.477 314.686 314.008 305.498 314.95 300.316L316.117 299.877C317.066 299.986 318.222 300.017 319.019 300.625C323.093 303.734 324.214 315.557 324.846 320.231L331.854 318.939C331.49 316.772 331.308 314.613 331.132 312.426L331.848 312.699L331.415 311.841C331.572 313.023 331.708 314.22 331.933 315.391C332.194 316.75 332.272 317.314 333.43 318.1L335.098 317.601C333.344 309 333.142 308.829 328.04 301.712C327.932 300.355 327.892 300.371 328.687 299.274C330.062 298.773 330.355 298.76 331.804 298.984C333.245 299.914 333.928 300.911 334.649 302.467C336.561 306.592 338.232 312.58 336.589 316.916C340.445 315.955 344.196 310.531 346.252 307.338C344.446 303.982 340.427 298.85 339.853 295.276L340.69 294.451C343.266 295.165 346.486 301.663 347.983 304.056C350.126 298.453 352.587 292.044 352.167 285.94C349.219 284.374 345.515 281.969 342.222 281.331C341.19 281.131 341.155 281.116 340.278 281.748L340.387 283.51L339.57 283.244C337.657 280.986 332.589 278.205 331.978 275.868L332.622 275.149C334.619 274.982 336.244 276.094 337.964 276.984C336.575 271.664 335.066 266.894 332.346 262.096C327.359 252.946 319.707 244.781 315.401 235.318L315.774 235.198C321.19 241.888 326.256 248.925 331.116 256.028L347.241 256.033C344.226 249.013 340.62 242.641 335.473 236.946C330.705 231.671 325.32 226.857 321.342 220.927C332.241 225.981 341.3 235.116 346.947 245.682C348.466 248.524 349.33 251.746 351.006 254.499C351.946 256.044 352.67 256.086 354.296 256.486C359.962 256.689 386.512 257.621 389.631 260.174C386.215 261.23 359.54 258.515 353.163 258.651C352.647 260.982 356.04 269.193 356.544 272.317C357.312 277.077 357.397 281.799 357.273 286.608C367.225 291.084 376.726 296.756 386.347 301.915C388.458 295.511 390.071 288.722 391.413 282.112C395.52 261.887 394.903 238.812 389.301 218.924C386.773 209.95 383.023 201.214 380.158 192.309C375.905 179.082 371.989 165.07 364.203 153.407C354.343 138.638 342.128 128.772 324.481 125.417C307.3 122.15 293.641 127.731 279.703 137.316C283.27 133.404 286.725 129.884 291.235 127.057C303.478 119.385 317.968 118.54 331.769 121.633C315.041 110.793 297.726 104.743 278.274 101.042C277.081 100.823 275.885 100.619 274.687 100.429C273.489 100.239 272.289 100.063 271.087 99.9017C269.884 99.741 268.68 99.5947 267.474 99.4627C266.269 99.3307 265.062 99.213 263.853 99.1097C262.644 99.007 261.434 98.9187 260.223 98.8447C259.012 98.7714 257.801 98.7124 256.589 98.6677C255.376 98.623 254.164 98.5934 252.951 98.5787C251.738 98.5634 250.525 98.5627 249.312 98.5767C248.099 98.5907 246.887 98.6194 245.674 98.6627C244.462 98.7054 243.25 98.763 242.039 98.8357C240.828 98.9084 239.619 98.9954 238.41 99.0967C237.201 99.1987 235.994 99.315 234.788 99.4457C233.582 99.5764 232.378 99.7217 231.175 99.8817C229.972 100.042 228.772 100.216 227.574 100.405C226.375 100.593 225.179 100.796 223.986 101.014C222.793 101.232 221.602 101.464 220.415 101.71C219.227 101.956 218.042 102.217 216.861 102.492C215.68 102.766 214.502 103.055 213.327 103.359C212.152 103.662 210.982 103.979 209.815 104.311C208.648 104.643 207.485 104.988 206.327 105.348C205.168 105.707 204.014 106.081 202.864 106.469C201.715 106.856 200.57 107.257 199.43 107.672C198.291 108.087 197.156 108.516 196.026 108.958C194.897 109.4 193.773 109.856 192.654 110.326C191.536 110.795 190.423 111.278 189.316 111.775C188.209 112.271 187.109 112.78 186.014 113.304C184.919 113.826 183.831 114.362 182.75 114.912C181.668 115.46 180.593 116.022 179.525 116.598C178.457 117.172 177.396 117.76 176.342 118.361C175.288 118.961 174.242 119.575 173.203 120.201C172.164 120.827 171.132 121.465 170.108 122.116C169.085 122.766 168.069 123.429 167.061 124.105C178.05 119.688 189.354 118.81 200.797 122.245C208.481 124.552 217.961 129.493 221.856 136.8C212.652 129.583 202.86 124.955 190.994 124.629C178.62 124.289 160.666 129.895 151.691 138.539C125.49 163.775 112.14 224.221 111.54 259.709C124.818 257.153 137.724 256.565 151.228 256.401C151.654 255.405 152.101 254.418 152.569 253.442C153.037 252.464 153.525 251.498 154.034 250.542C154.543 249.585 155.071 248.64 155.62 247.706C156.169 246.772 156.738 245.85 157.325 244.941C157.913 244.031 158.52 243.134 159.146 242.25C159.772 241.366 160.417 240.495 161.08 239.639C161.743 238.782 162.423 237.94 163.122 237.112C163.821 236.284 164.536 235.471 165.269 234.674C166.002 233.876 166.752 233.094 167.518 232.329C168.284 231.563 169.066 230.813 169.864 230.081C170.662 229.348 171.475 228.633 172.303 227.935C173.131 227.236 173.974 226.556 174.831 225.894C175.688 225.231 176.558 224.587 177.443 223.962C178.328 223.336 179.225 222.73 180.135 222.142C181.045 221.554 181.967 220.986 182.901 220.438C183.835 219.89 184.78 219.361 185.737 218.853ZM348.34 258.052C343.384 257.855 337.003 257.065 332.207 258.121L333.669 261.334C336.101 266.992 337.937 272.72 339.687 278.614C344.055 280.374 349.032 281.957 352.959 284.562C352.245 275.292 351.103 266.988 348.34 258.052ZM247.702 8.2887C183.412 10.0757 121.117 35.4747 76.589 82.5597C75.2077 84.003 73.8443 85.463 72.499 86.9397C71.153 88.4164 69.8257 89.909 68.517 91.4177C67.2077 92.927 65.917 94.452 64.645 95.9927C63.3737 97.5334 62.121 99.0894 60.887 100.661C59.6537 102.232 58.4393 103.818 57.244 105.419C56.0493 107.02 54.8743 108.635 53.719 110.265C52.563 111.895 51.4273 113.538 50.312 115.196C49.1973 116.853 48.1027 118.524 47.028 120.209C45.9533 121.893 44.8997 123.59 43.867 125.3C42.8343 127.01 41.8227 128.732 40.832 130.467C39.8413 132.201 38.8717 133.948 37.923 135.707C36.975 137.465 36.0487 139.235 35.144 141.016C34.2393 142.797 33.3567 144.589 32.496 146.392C31.6347 148.194 30.7957 150.007 29.979 151.831C29.1623 153.654 28.3683 155.487 27.597 157.33C26.825 159.172 26.0757 161.024 25.349 162.885C24.623 164.746 23.9197 166.616 23.239 168.494C22.5577 170.372 21.8997 172.258 21.265 174.153C20.6303 176.047 20.019 177.948 19.431 179.858C18.843 181.767 18.2783 183.683 17.737 185.606C17.1957 187.529 16.678 189.458 16.184 191.394C15.69 193.33 15.2197 195.271 14.773 197.219C14.3263 199.165 13.9037 201.118 13.505 203.076C13.1057 205.033 12.7307 206.995 12.38 208.962C12.0293 210.928 11.7027 212.899 11.4 214.874C11.0973 216.848 10.8187 218.826 10.564 220.808C10.31 222.79 10.08 224.774 9.874 226.761C9.668 228.748 9.48666 230.737 9.32999 232.729C9.17266 234.721 9.03967 236.714 8.931 238.709C8.823 240.703 8.73899 242.699 8.67899 244.696C8.61965 246.693 8.58467 248.69 8.57401 250.688C8.56334 252.686 8.57699 254.683 8.61499 256.681C10.203 311.853 28.254 363.846 62.427 407.269L75.917 331.773C80.676 304.582 85.231 277.17 92.817 250.588C98.933 229.159 106.957 208.597 115.741 188.157C128.588 158.261 136.777 136.962 164.893 117.263C190.306 99.4577 223.926 92.1907 254.59 92.4137C291.451 93.3297 328.428 104.366 354.438 131.634C369.36 147.278 375.703 156.496 382.572 177.346C384.598 183.494 386.303 189.879 388.658 195.899C391.669 203.598 396.165 210.72 399.286 218.404C409.034 242.399 415.769 267.337 420.989 292.675C428.691 330.058 430.939 369.014 442.891 405.461C449.769 396.106 456.427 386.788 462.244 376.722C463.117 375.212 463.975 373.692 464.816 372.164C465.657 370.636 466.481 369.099 467.289 367.553C468.097 366.007 468.888 364.452 469.663 362.89C470.438 361.326 471.197 359.755 471.938 358.177C472.679 356.597 473.404 355.01 474.111 353.416C474.818 351.821 475.508 350.219 476.181 348.61C476.854 347.001 477.51 345.385 478.149 343.762C478.788 342.138 479.409 340.508 480.013 338.872C480.616 337.235 481.202 335.592 481.771 333.943C482.34 332.293 482.891 330.638 483.424 328.978C483.957 327.317 484.473 325.651 484.971 323.979C485.468 322.307 485.948 320.63 486.41 318.948C486.872 317.266 487.316 315.579 487.741 313.887C488.167 312.195 488.575 310.499 488.964 308.799C489.354 307.098 489.726 305.394 490.079 303.686C490.432 301.977 490.766 300.265 491.083 298.55C491.4 296.834 491.698 295.116 491.978 293.394C492.257 291.672 492.519 289.948 492.762 288.22C493.005 286.492 493.229 284.763 493.435 283.031C493.641 281.299 493.828 279.564 493.997 277.828C494.166 276.092 494.317 274.354 494.448 272.615C494.58 270.875 494.693 269.135 494.788 267.393C494.883 265.651 494.959 263.908 495.016 262.165C495.073 260.421 495.112 258.677 495.132 256.933C495.152 255.189 495.153 253.444 495.136 251.7C495.119 249.956 495.084 248.212 495.029 246.468C494.974 244.724 494.901 242.982 494.81 241.24C494.718 239.498 494.608 237.757 494.479 236.018C494.35 234.278 494.202 232.539 494.036 230.803C493.87 229.067 493.685 227.332 493.482 225.6C493.279 223.867 493.058 222.137 492.818 220.409C492.578 218.681 492.319 216.956 492.042 215.234C491.744 213.248 491.422 211.267 491.075 209.291C490.728 207.313 490.356 205.341 489.96 203.374C489.564 201.406 489.144 199.443 488.699 197.486C488.254 195.528 487.785 193.577 487.292 191.631C486.799 189.685 486.281 187.745 485.74 185.813C485.199 183.88 484.634 181.954 484.045 180.035C483.456 178.116 482.843 176.205 482.206 174.302C481.569 172.398 480.909 170.502 480.226 168.615C479.542 166.727 478.835 164.849 478.105 162.98C477.374 161.11 476.621 159.249 475.844 157.399C475.068 155.547 474.269 153.706 473.446 151.876C472.624 150.044 471.779 148.224 470.912 146.414C470.045 144.603 469.155 142.804 468.243 141.016C467.33 139.228 466.396 137.451 465.44 135.687C464.484 133.921 463.506 132.169 462.506 130.429C461.507 128.688 460.486 126.96 459.443 125.245C458.4 123.529 457.336 121.827 456.251 120.139C455.166 118.449 454.061 116.774 452.934 115.113C451.808 113.451 450.661 111.804 449.494 110.172C448.327 108.538 447.139 106.92 445.931 105.317C444.724 103.713 443.496 102.125 442.249 100.553C441.002 98.9794 439.736 97.422 438.45 95.8807C437.165 94.3394 435.86 92.814 434.537 91.3047C433.213 89.7954 431.871 88.303 430.511 86.8277C429.15 85.3517 427.771 83.893 426.374 82.4517C424.977 81.0097 423.563 79.5857 422.131 78.1797C420.699 76.773 419.25 75.3844 417.783 74.0137C416.316 72.6437 414.833 71.2917 413.333 69.9577C411.832 68.6244 410.316 67.3097 408.783 66.0137C407.25 64.7177 405.702 63.441 404.137 62.1837C402.572 60.9257 400.992 59.6877 399.397 58.4697C397.802 57.251 396.192 56.0527 394.567 54.8747C393.252 53.9047 391.927 52.9484 390.592 52.0057C389.257 51.063 387.913 50.134 386.559 49.2187C385.205 48.3034 383.842 47.402 382.469 46.5147C381.097 45.6274 379.716 44.7544 378.325 43.8957C376.935 43.0364 375.536 42.1917 374.129 41.3617C372.721 40.5317 371.305 39.716 369.881 38.9147C368.456 38.1134 367.024 37.327 365.583 36.5557C364.142 35.7837 362.694 35.0267 361.238 34.2847C359.782 33.5427 358.319 32.8157 356.848 32.1037C355.377 31.3917 353.899 30.695 352.414 30.0137C350.929 29.3317 349.436 28.665 347.937 28.0137C346.438 27.363 344.933 26.7277 343.421 26.1077C341.909 25.487 340.391 24.8824 338.866 24.2937C337.342 23.7044 335.812 23.131 334.276 22.5737C332.739 22.0164 331.197 21.4747 329.65 20.9487C328.103 20.4227 326.551 19.9124 324.993 19.4177C323.435 18.9237 321.872 18.4457 320.305 17.9837C318.738 17.5217 317.166 17.0757 315.589 16.6457C314.012 16.2164 312.431 15.803 310.846 15.4057C309.261 15.0084 307.672 14.6274 306.079 14.2627C304.486 13.8974 302.889 13.5487 301.289 13.2167C299.689 12.8847 298.086 12.5694 296.479 12.2707C294.872 11.9714 293.263 11.6887 291.65 11.4227C290.038 11.1567 288.423 10.9074 286.805 10.6747C285.188 10.4414 283.568 10.225 281.946 10.0257C280.324 9.8257 278.7 9.64269 277.074 9.47669C275.449 9.31003 273.822 9.16035 272.193 9.02769C270.564 8.89435 268.934 8.77802 267.303 8.67869C265.672 8.57935 264.04 8.4967 262.407 8.4307C260.774 8.3647 259.14 8.31536 257.506 8.28269C255.872 8.25003 254.238 8.23436 252.604 8.23569C250.97 8.23636 249.336 8.25404 247.702 8.2887ZM250.6 196.988C248.791 198.177 247.837 199.005 247.443 201.252C246.603 206.049 247.302 213.083 249.867 217.201C251.269 218.083 251.487 217.79 253.056 217.472C255.888 213.444 258.118 207.556 257.347 202.54C257.078 200.792 256.261 198.733 254.657 197.803C253.428 197.09 251.974 197.049 250.6 196.988ZM131.907 258.259C125.146 258.826 118.214 259.423 111.551 260.711C111.95 274.664 114.044 288.105 117.457 301.62L125.571 295.741C131.63 291.472 137.731 287.511 144.312 284.072C145.713 275.092 147.729 266.619 150.737 258.018C144.594 257.956 138 257.481 131.907 258.259ZM143.676 286.085C134.808 290.852 125.41 296.49 117.817 303.148C119.836 314.482 125.492 326.248 131.368 336.07C132.944 338.434 134.476 340.846 136.144 343.146C140.336 331.748 144.265 320.275 149.625 309.356C145.71 303.095 144.667 297.601 144.142 290.324C144.053 289.085 144.195 287.176 143.676 286.085ZM356.947 288.757C356.231 296.153 354.443 302.193 351.794 309.111C357.907 319.126 362.16 330.492 366.43 341.397C368.652 338.548 370.619 335.618 372.546 332.563C375.255 327.969 377.711 323.245 379.913 318.389C382.116 313.532 384.052 308.572 385.722 303.508C376.289 298.489 366.914 292.626 356.947 288.757ZM152.125 313.385C135.742 350.358 126.064 390.251 117.673 429.698C115.833 438.35 114.85 447.203 112.893 455.817C115.037 456.888 116.763 457.836 118.51 459.53L118.872 459.876C121.53 447.818 123.071 435.533 125.75 423.458C130.466 402.195 135.757 380.612 142.262 359.818C146.6 345.952 151.666 332.46 156.755 318.869C155.375 317.056 153.965 314.732 152.125 313.385ZM349.177 314.023L345.544 318.036C349.63 331.846 356.343 345.958 360.965 359.992C367.859 380.923 372.816 402.3 378.573 423.545C380.3 429.918 383.979 455.467 386.167 458.43L387.03 458.204C388.366 457.009 389.731 455.834 391.022 454.591C383.802 411.905 373.043 368.22 356.038 328.319C354.247 324.119 352.16 317.429 349.177 314.023ZM208.791 319.933C207.037 320.897 205.584 321.522 204.954 323.577C203.704 327.65 204.514 334.173 206.624 337.905C206.759 338.142 206.903 338.374 207.042 338.609C208.574 338.044 209.071 338.117 209.697 336.511C210.61 334.172 210.604 322.745 209.428 320.443C209.22 320.036 209.21 320.118 208.791 319.933ZM293.297 320.484C293.281 325.294 292.17 334.402 294.631 338.358C295.944 339.189 296.377 338.977 297.891 338.874C299.261 335.467 299.57 325.945 298.276 322.461C298.054 321.864 297.951 321.791 297.603 321.359C296.137 320.929 294.814 320.668 293.297 320.484ZM310.691 325.301C312.375 337.939 313.7 350.679 313.245 363.454C313.112 367.186 311.643 373.607 313.602 376.718C315.098 377.058 315.518 376.873 316.956 376.462C319.053 369.092 319.182 333.729 315.748 327.262C315.326 326.467 314.87 326.229 313.998 325.925C312.994 325.575 311.746 325.473 310.691 325.301ZM169.36 325.735C167.435 334.567 166 343.479 165.053 352.47C163.633 365.369 160.007 416.189 163.356 426.201C164.235 426.99 164.762 427.184 165.968 427.161C166.692 427.147 167.467 426.986 168.176 426.874C168.718 417.33 168.086 407.734 168.344 398.177C168.988 374.311 171.042 350.986 175.068 327.449L169.36 325.735ZM187.17 326.365C185.811 327.4 185.803 328.553 185.586 330.203C184.608 337.627 182.22 371.357 185.757 376.387C186.361 377.247 188.073 377.579 189.067 377.771C190.546 375.728 190.3 373.575 190.223 371.169C189.959 362.817 189.366 354.673 189.808 346.304C190.048 341.761 192.044 329.811 191.701 326.805C191.674 326.566 191.531 326.355 191.445 326.13C190.011 326.168 188.598 326.223 187.17 326.365ZM330.375 326.6L327.652 327.139C326.625 328.762 326.765 330.141 327.165 331.974C330.576 347.621 331.856 363.347 333.127 379.312C334.27 393.664 335.326 407.969 336.104 422.347C336.202 424.173 335.821 426.338 337.603 427.424C337.766 427.524 337.942 427.601 338.111 427.689C339.779 426.501 340.73 425.971 341.121 423.819C343.107 412.888 336.758 335.92 331.786 326.95C331.326 326.811 330.857 326.609 330.375 326.6Z" fill="#240542"/>
</svg>
